<svg id="Layer_1" data-name="Layer 1" xmlns="http://www.w3.org/2000/svg" xmlns:xlink="http://www.w3.org/1999/xlink" width="34" height="20" viewBox="0 0 747.28 434.78"><defs><style>.cls-1{fill:none;}.cls-2{clip-path:url(#clip-path);}.cls-3{fill:#34d186;fill-rule:evenodd;}</style><clipPath id="clip-path" transform="translate(0 -157.61)"><rect class="cls-1" y="157.61" width="750" height="434.78"/></clipPath></defs><title>bolt-logo</title><g class="cls-2"><path class="cls-3" d="M747.17,331.74H708.5V392.1c0,18.26,5.92,31.72,21.43,31.72a65.33,65.33,0,0,0,17.35-2.24V478.2a80.54,80.54,0,0,1-37.81,9.6h-1c-1,0-1.83-.1-2.8-.1H705c-.44,0-1-.11-1.41-.11-43.3-2.24-72.71-29.26-72.71-76.17v-199l77.56-16.33v58.75h38.78ZM207.26,311.65a99.88,99.88,0,0,1,30.27,71.89c0,55.76-45.56,101-101.8,101H0V157.61H120.65c56.23,0,101.8,45.18,101.8,100.94A99.25,99.25,0,0,1,207.26,311.65ZM77.67,234.53V282.6h43.09A24.18,24.18,0,0,0,145,258.55a24.18,24.18,0,0,0-24.24-24Zm58.17,173a24,24,0,1,0,0-48.07H77.67v48.07Zm244,0a38.46,38.46,0,1,0-38.79-38.46A38.6,38.6,0,0,0,379.84,407.58Zm0-157.13c66,0,119.67,53.08,119.67,118.67s-53.64,118.7-119.67,118.7-119.68-53.1-119.68-118.7S313.8,250.45,379.84,250.45Zm0,265a38.46,38.46,0,1,1-38.79,38.45,38.62,38.62,0,0,1,38.79-38.45ZM600.67,157.61V484.5H523.11V174Z" transform="translate(0 -157.61)"/></g></svg>