<svg width="25" height="24" viewBox="0 0 25 24" fill="none" xmlns="http://www.w3.org/2000/svg">
<path d="M12.9692 3.02278C14.3329 4.38649 14.3329 6.5975 12.9692 7.96121C11.6055 9.32492 9.39449 9.32492 8.03078 7.96121C6.66707 6.5975 6.66707 4.38649 8.03078 3.02278C9.39449 1.65907 11.6055 1.65907 12.9692 3.02278" stroke="#323232" stroke-width="1.5" stroke-linecap="round" stroke-linejoin="round"/>
<path d="M14.863 12.796C13.564 12.277 12.04 11.991 10.5 11.991C6.452 11.991 2.5 13.958 2.5 16.983V17.983C2.5 18.535 2.948 18.983 3.5 18.983H12.913" stroke="#323232" stroke-width="1.5" stroke-linecap="round" stroke-linejoin="round"/>
<path d="M17.5 22C14.739 22 12.5 19.762 12.5 17C12.5 14.296 14.8 11.997 17.504 12C20.264 12.002 22.5 14.24 22.5 17C22.5 19.761 20.262 22 17.5 22" stroke="#323232" stroke-width="1.5" stroke-linecap="round" stroke-linejoin="round"/>
<path d="M16.866 15.2319L18.634 16.9999L16.866 18.7679" stroke="#323232" stroke-width="1.5" stroke-linecap="round" stroke-linejoin="round"/>
</svg>
