<svg width="24" height="24" viewBox="0 0 24 24" fill="none" xmlns="http://www.w3.org/2000/svg">
<path d="M14 15V14C14 12.343 12.657 11 11 11H6C4.343 11 3 12.343 3 14V15" stroke="#323232" stroke-width="1.5" stroke-linecap="round" stroke-linejoin="round"/>
<path fill-rule="evenodd" clip-rule="evenodd" d="M12 21H5C3.895 21 3 20.105 3 19V18H14V19C14 20.105 13.105 21 12 21Z" stroke="#323232" stroke-width="1.5" stroke-linecap="round" stroke-linejoin="round"/>
<path d="M2 15H15" stroke="#323232" stroke-width="1.5" stroke-linecap="round" stroke-linejoin="round"/>
<path d="M10.684 11L10.303 8.132C10.224 7.532 10.69 7 11.295 7H20C20.609 7 21.076 7.539 20.99 8.141L19.276 20.141C19.205 20.634 18.783 21 18.286 21H16.153" stroke="#323232" stroke-width="1.5" stroke-linecap="round" stroke-linejoin="round"/>
<path d="M19.153 3H17.016C16.52 3 16.1 3.363 16.027 3.853L15.559 7" stroke="#323232" stroke-width="1.5" stroke-linecap="round" stroke-linejoin="round"/>
</svg>
